{"title":"Soul Surfer[2011]PPVrip-LW-{HKRG}","uid":6535360,"size":738273280,"categoryP":"video","categoryS":"movies","magnet":"?xt=urn:btih:9beb4a760ef392d2a06f81528395cfd05e778928&amp;dn=Soul+Surfer%5B2011%5DPPVrip-LW-%7BHKRG%7D&amp;tr=udp%3A%2F%2Ftracker.openbittorrent.com%3A80&amp;tr=udp%3A%2F%2Fopen.demonii.com%3A1337&amp;tr=udp%3A%2F%2Ftracker.coppersurfer.tk%3A6969&amp;tr=udp%3A%2F%2Fexodus.desync.com%3A6969","seeders":0,"leechers":1,"uploader":"XoLWoX","files":-1,"time":1310495106,"description":"[img]http://imgr.us/images/ogq3ly5m5nsu5x1d1mmm.png[/img]\n\nFile size : 704 MiB\nDuration : 1h 46mn\nOverall bit rate : 926 Kbps\n\nVideo\nID : 0\nFormat : MPEG-4 Visual\nFormat profile : Advanced Simple@L5\nFormat settings, BVOP : 2\nFormat settings, QPel : No\nFormat settings, GMC : No warppoints\nFormat settings, Matrix : Default (H.263)\nMuxing mode : Packed bitstream\nCodec ID : XVID\nCodec ID/Hint : XviD\nDuration : 1h 46mn\nBit rate : 789 Kbps\nWidth : 720 pixels\nHeight : 528 pixels\nDisplay aspect ratio : 4:3\nFrame rate : 25.000 fps\nColor space : YUV\nChroma subsampling : 4:2:0\nBit depth : 8 bits\nScan type : Progressive\nCompression mode : Lossy\nBits/(Pixel*Frame) : 0.083\nStream size : 599 MiB (85%)\nWriting library : XviD 1.2.0.dev47 (UTC 2006-11-01)\n\nAudio\nID : 1\nFormat : MPEG Audio\nFormat version : Version 1\nFormat profile : Layer 3\nMode : Joint stereo\nCodec ID : 55\nCodec ID/Hint : MP3\nDuration : 1h 46mn\nBit rate mode : Constant\nBit rate : 128 Kbps\nChannel(s) : 2 channels\nSampling rate : 44.1 KHz\nCompression mode : Lossy\nDelay relative to video : 26ms\nStream size : 97.3 MiB (14%)\nAlignment : Split accross interleaves\nInterleave, duration : 40 ms (1.00 video frame)\nInterleave, preload duration : 500 ms\n\n\nSource - PPVRIP IFLIX\n\n[img]http://imgr.us/images/f5th2yrjiep88xw5hm.png[/img]\n[img]http://imgr.us/images/dsaolkh1cqfajb9fsb3x.png[/img]\n[img]http://imgr.us/images/n7i1zmp7bcit3z5uycxv.png[/img]\n[img]http://imgr.us/images/x0k01o1mz2liejm2o0k6.png[/img]","torrent":{"xt":"urn:btih:9beb4a760ef392d2a06f81528395cfd05e778928","amp;dn":"Soul+Surfer%5B2011%5DPPVrip-LW-%7BHKRG%7D","amp;tr":["udp%3A%2F%2Ftracker.openbittorrent.com%3A80","udp%3A%2F%2Fopen.demonii.com%3A1337","udp%3A%2F%2Ftracker.coppersurfer.tk%3A6969","udp%3A%2F%2Fexodus.desync.com%3A6969"],"infoHash":"9beb4a760ef392d2a06f81528395cfd05e778928","infoHashBuffer":{"type":"Buffer","data":[155,235,74,118,14,243,146,210,160,111,129,82,131,149,207,208,94,119,137,40]},"announce":[],"urlList":[]}}